<svg xmlns="http://www.w3.org/2000/svg" viewBox="0 0 32 32" width="32" height="32">
  <g transform="scale(0.051) translate(0, 20)">
    <path fill="#E6411D" d="M497.375 69.164q1.817.909 3.625 1.836l1.79.913C521.574 81.69 538.17 95.15 551 112c.677.861 1.354 1.722 2.05 2.61 14.018 18.399 21.314 39.996 25.536 62.515 2.92 27.335-.92 53.097-11.624 78.321-4.82 10.663-10.72 20.69-18.15 29.742-4.843 5.885-4.843 5.885-7.812 12.812-1.068 10.737 3.787 23.773 8.099 33.47A159.5 159.5 0 0 0 561 352c-5.347 1.257-9.85.728-15.187-.125l-2.687-.426c-17.237-2.868-33.5-8.47-49.94-14.235q-1.958-.685-3.918-1.36c-2.662-.919-5.29-1.863-7.887-2.951-3.096-1.255-5.362-2.036-8.713-1.6-2.515.669-4.916 1.48-7.356 2.385-12.987 4.616-25.768 5.686-39.5 5.625l-2.046-.008c-24.149-.137-46.667-5.29-67.868-17.194C346.38 316.54 337.37 310.183 329 303c-.954-.808-1.908-1.616-2.89-2.45-7.77-6.743-14.093-14.226-20.11-22.55l-1.32-1.813c-14.43-20.03-23.102-42.985-26.078-67.464-.627-6.576-.798-13.122-.602-19.723l.086-3.203c1.131-23.601 10.306-46.044 22.601-65.984 2.452-3.727 5.07-6.736 8.313-9.813q1.465-1.917 2.875-3.875c10.722-14.467 26.382-23.985 41.784-32.78a181 181 0 0 0 4.489-2.662c6.307-3.76 12.877-5.803 19.914-7.808 1.195-.346 2.39-.692 3.62-1.05 37.735-10.734 79.828-9.874 115.693 7.34m-75.687 113.899c-3.207 2.311-5.744 4.497-7.688 7.937-1.306 3.353-1.967 6.397-2 10 1.107 4.609 3.049 7.97 6.25 11.438 3.56 2.022 6.633 3.319 10.75 3.562 4.126-.608 7.552-1.885 10.867-4.437 2.496-2.389 4.034-4.267 5.133-7.563.436-4.09.618-8.13-.684-12.07-1.549-2.97-3.47-5.07-5.941-7.305-5.542-2.668-10.782-3.457-16.687-1.562m-59.375 1A48.3 48.3 0 0 0 354 193c-1.228 3.685-1.382 6.114-1 10 1.874 4.33 4.283 7.392 7.875 10.438 3.636 1.818 6.048 2.493 10.125 2.562 3.317-.499 6.065-1.365 9-3 2.66-2.372 4.43-4.805 6-8 1.007-3.107 1.335-5.748 1-9-.878-3.044-2.083-5.478-4-8-3.01-2.396-5.366-3.789-9-5-4.121-.401-7.81-.47-11.687 1.063M478 186c-2.75 2.728-4.758 5.275-6 9-.281 4.292-.307 7.131 1.125 11.188 2.739 4.108 5.998 6.725 10.25 9.187 3.744.891 6.967.66 10.625-.375 4.213-1.88 7.236-3.974 10-7.687 1.383-4.58 1.766-8.576 1-13.313-1.195-3.15-2.683-5.554-5-8-3.845-2.366-7.12-3.18-11.562-3.375-4.14.169-6.96 1.004-10.438 3.375"/>
    <path fill="#F0510F" d="m212.438 188.625 2.07-.015c12.804-.038 25.261 1.343 37.492 5.39l2.216.718L256 196c.65 2.556.65 2.556.871 5.8l.292 3.62.274 3.893c.235 2.662.476 5.323.735 7.984l.195 2.009c2.525 24.757 12.4 48.414 26.726 68.634 9.916 13.637 21.43 24.935 34.907 35.06-.554 5.048-2.255 9.101-4.562 13.563l-1.087 2.12c-8.226 15.836-17.638 29.058-32.624 39C266.492 387.348 249.146 394.003 231 395c-17.213.688-33.443-.19-50.293-3.683-4.283-.366-6.846.388-10.871 1.851l-4.123 1.454-2.149.777C134.138 406 134.138 406 120 406c1.355-3.65 3.044-7.034 4.87-10.469 4.027-7.658 6.888-14.887 8.13-23.531l.344-2.266c.223-2.84-.14-5.238-1.223-7.867-2.164-4.1-4.78-7.807-7.496-11.555-9.63-13.66-15.275-29.788-17.625-46.312-.765-14.297-1.236-29.201 3-43l.586-1.916c4.75-15.054 12.34-27.82 23.414-39.084l2.191-2.48C146.733 206.015 161.327 198.835 176 194c12.182-3.561 23.752-5.292 36.438-5.375M164 285c-2.24 2.24-2.95 3.836-3.875 6.875-.33 3.203-.33 3.203 1.063 6.313 1.66 2.738 1.66 2.738 3.437 4.625 3.673 1.836 7.285 2.304 11.375 2.187 3.268-1.279 4.626-2.536 6.813-5.25 1.518-3.517 1.594-5.95 1.187-9.75-.993-2.821-.993-2.821-3-5-2.871-1.81-5.143-2.871-8.5-3.375-3.321.498-5.636 1.632-8.5 3.375m41.813-1.437c-2.969 2.325-2.969 2.325-4.813 5.687-1.064 3.991-.937 6.063.066 9.953.877 1.928.877 1.928 2.715 3.477 3.236 1.925 6.109 2.121 9.813 2.382 2.555.068 2.555.068 5.344-1.187 2.444-2.223 3.77-3.813 5.062-6.875.515-2.79.608-5.22 0-8-2.116-2.704-4.117-4.402-6.937-6.312-4.323-1.441-7.169-1.126-11.25.875m42.5-1.625c-2.902 1.806-4.034 2.604-5.813 5.312-1.399 2.846-1.495 4.04-1.437 7.375.927 3.34 1.824 5.636 3.937 8.375 2.152 1.343 3.643 1.975 6.184 2.152 2.36-.225 4.529-.515 6.816-1.152 2.712-2.135 4.397-4.15 6.375-6.937.772-2.163.772-2.163.563-4.938-1.223-4.073-2.868-6.188-5.938-9.125-4.195-1.942-6.197-2.204-10.687-1.062"/>
  </g>
</svg>